<svg width="448" height="512" xmlns="http://www.w3.org/2000/svg" class="svg-inline--fa fa-calendar-week fa-w-14">

 <g>
  <title>background</title>
  <rect fill="none" id="canvas_background" height="602" width="802" y="-1" x="-1"/>
 </g>
 <g>
  <title>Layer 1</title>
  <path id="svg_1" d="m0,464c0,26.5 21.5,48 48,48l352,0c26.5,0 48,-21.5 48,-48l0,-272l-448,0l0,272zm64,-192c0,-8.8 7.2,-16 16,-16l288,0c8.8,0 16,7.2 16,16l0,64c0,8.8 -7.2,16 -16,16l-288,0c-8.8,0 -16,-7.2 -16,-16l0,-64zm336,-208l-48,0l0,-48c0,-8.8 -7.2,-16 -16,-16l-32,0c-8.8,0 -16,7.2 -16,16l0,48l-128,0l0,-48c0,-8.8 -7.2,-16 -16,-16l-32,0c-8.8,0 -16,7.2 -16,16l0,48l-48,0c-26.5,0 -48,21.5 -48,48l0,48l448,0l0,-48c0,-26.5 -21.5,-48 -48,-48z" fill="#999999"/>
 </g>
</svg>