<svg width="512" height="512" xmlns="http://www.w3.org/2000/svg">

 <g>
  <title>background</title>
  <rect fill="none" id="canvas_background" height="602" width="802" y="-1" x="-1"/>
 </g>
 <g>
  <title>Layer 1</title>
  <g id="svg_1">
   <g id="svg_2">
    <g id="svg_3">
     <circle fill="#999999" id="svg_4" r="19.975" cy="412.123" cx="361.869"/>
     <circle fill="#999999" id="svg_5" r="19.975" cy="154.435" cx="315.921"/>
     <path fill="#999999" id="svg_6" d="m491.711,312.246l19.975,0l0,-119.853l-50.937,0c-22.029,0 -39.951,-17.922 -39.951,-39.951c0,-14.948 8.255,-28.532 21.544,-35.453l17.013,-8.861l-50.866,-108.128l-407.707,192.304l0.042,0.089l-0.51,0l0,119.853l19.976,0c22.029,0 39.951,17.922 39.951,39.951c0,22.029 -17.922,39.951 -39.951,39.951l-19.976,0l0,119.852l511.371,0l0,-119.853l-19.975,0c-22.029,0 -39.951,-17.922 -39.951,-39.951c0,-22.028 17.922,-39.95 39.952,-39.95zm-219.568,-203.762c4.85,9.631 16.505,13.713 26.323,9.095c9.83,-4.624 14.117,-16.229 9.762,-26.115l81.134,-38.269l18.505,39.335c-16.998,14.961 -27.021,36.606 -27.021,59.913c0,14.548 3.928,28.188 10.75,39.951l-297.352,0l177.899,-83.91zm199.591,321.086l0,42.479l-89.889,0c0,-11.032 -8.943,-19.975 -19.975,-19.975c-11.032,0 -19.975,8.943 -19.975,19.975l-301.63,0l0,-42.479c34.424,-8.892 59.926,-40.211 59.926,-77.374c0,-37.163 -25.503,-68.483 -59.926,-77.374l0,-42.479l301.629,0c0,11.032 8.943,19.975 19.975,19.975c11.032,0 19.975,-8.943 19.975,-19.975l89.889,0l0,42.479c-34.424,8.892 -59.926,40.211 -59.926,77.374c0.001,37.164 25.503,68.482 59.927,77.374z"/>
     <circle fill="#999999" id="svg_7" r="19.975" cy="292.27" cx="361.869"/>
     <circle fill="#999999" id="svg_8" r="19.975" cy="352.197" cx="361.869"/>
    </g>
   </g>
  </g>
  <g id="svg_9"/>
  <g id="svg_10"/>
  <g id="svg_11"/>
  <g id="svg_12"/>
  <g id="svg_13"/>
  <g id="svg_14"/>
  <g id="svg_15"/>
  <g id="svg_16"/>
  <g id="svg_17"/>
  <g id="svg_18"/>
  <g id="svg_19"/>
  <g id="svg_20"/>
  <g id="svg_21"/>
  <g id="svg_22"/>
  <g id="svg_23"/>
 </g>
</svg>