<svg width="384" height="512" xmlns="http://www.w3.org/2000/svg" class="svg-inline--fa fa-clipboard-list fa-w-12">

 <g>
  <title>background</title>
  <rect fill="none" id="canvas_background" height="602" width="802" y="-1" x="-1"/>
 </g>
 <g>
  <title>Layer 1</title>
  <path id="svg_1" d="m336,64l-80,0c0,-35.3 -28.7,-64 -64,-64s-64,28.7 -64,64l-80,0c-26.5,0 -48,21.5 -48,48l0,352c0,26.5 21.5,48 48,48l288,0c26.5,0 48,-21.5 48,-48l0,-352c0,-26.5 -21.5,-48 -48,-48zm-240,360c-13.3,0 -24,-10.7 -24,-24s10.7,-24 24,-24s24,10.7 24,24s-10.7,24 -24,24zm0,-96c-13.3,0 -24,-10.7 -24,-24s10.7,-24 24,-24s24,10.7 24,24s-10.7,24 -24,24zm0,-96c-13.3,0 -24,-10.7 -24,-24s10.7,-24 24,-24s24,10.7 24,24s-10.7,24 -24,24zm96,-192c13.3,0 24,10.7 24,24s-10.7,24 -24,24s-24,-10.7 -24,-24s10.7,-24 24,-24zm128,368c0,4.4 -3.6,8 -8,8l-144,0c-4.4,0 -8,-3.6 -8,-8l0,-16c0,-4.4 3.6,-8 8,-8l144,0c4.4,0 8,3.6 8,8l0,16zm0,-96c0,4.4 -3.6,8 -8,8l-144,0c-4.4,0 -8,-3.6 -8,-8l0,-16c0,-4.4 3.6,-8 8,-8l144,0c4.4,0 8,3.6 8,8l0,16zm0,-96c0,4.4 -3.6,8 -8,8l-144,0c-4.4,0 -8,-3.6 -8,-8l0,-16c0,-4.4 3.6,-8 8,-8l144,0c4.4,0 8,3.6 8,8l0,16z" fill="#999999"/>
 </g>
</svg>