<svg width="512" height="512" xmlns="http://www.w3.org/2000/svg">

 <g>
  <title>background</title>
  <rect fill="none" id="canvas_background" height="602" width="802" y="-1" x="-1"/>
 </g>
 <g>
  <title>Layer 1</title>
  <g id="svg_1">
   <g id="svg_2">
    <path fill="#999999" id="svg_3" d="m255.999,282c-19.829,0 -35.961,16.132 -35.961,35.961l0,9.691l71.922,0l0,-9.691c0,-19.829 -16.132,-35.961 -35.961,-35.961z"/>
   </g>
  </g>
  <g id="svg_4">
   <g id="svg_5">
    <path fill="#999999" id="svg_6" d="m54.259,103l0,224.653l135.779,0l0,-9.691c0,-36.372 29.59,-65.962 65.961,-65.962c36.371,0 65.961,29.59 65.961,65.961l0,9.691l135.779,0l0,-224.652l-403.48,0z"/>
   </g>
  </g>
  <g id="svg_7">
   <g id="svg_8">
    <rect fill="#999999" y="-1" id="svg_9" height="73" width="470.98" x="20.51"/>
   </g>
  </g>
  <g id="svg_10">
   <g id="svg_11">
    <path fill="#999999" id="svg_12" d="m20.51,357.653l0,154.347l470.979,0l0,-154.347c-51.357,0 -424.347,0 -470.979,0zm109.948,60.599l0,49.977l-18.047,0l0,-49.977l-18.973,0l0,-15.733l55.899,0l0,15.733l-18.879,0zm43.497,49.977l-18.047,0l0,-65.71l18.047,0l0,65.71zm57.519,-3.425c-29.418,14.883 -58.375,-14.068 -47.57,-41.833c10.263,-26.405 47.495,-26.836 58.26,-6.478l-13.79,9.81c-5.011,-13.023 -28.412,-11.383 -28.412,9.07c0,19.905 23.195,22.508 28.135,9.348l14.715,8.792c-2.072,5.047 -6.521,8.852 -11.338,11.291zm57.056,3.425l-16.289,-24.155c-6.298,6.53 -4.998,1.369 -4.998,24.155l-18.047,0l0,-65.71l18.047,0l0,24.988l19.991,-24.988l20.36,0l-23.878,29.431l25.544,36.279l-20.73,0zm71.355,0l-46.83,0l0,-65.71l45.997,0l0,15.733l-27.95,0l0,9.255l23.878,0l0,14.623l-23.878,0l0,10.366l28.783,0l0,15.733zm59.599,-49.977l-18.88,0l0,49.977l-18.047,0l0,-49.977l-18.973,0l0,-15.733l55.9,0l0,15.733z"/>
   </g>
  </g>
  <g id="svg_13"/>
  <g id="svg_14"/>
  <g id="svg_15"/>
  <g id="svg_16"/>
  <g id="svg_17"/>
  <g id="svg_18"/>
  <g id="svg_19"/>
  <g id="svg_20"/>
  <g id="svg_21"/>
  <g id="svg_22"/>
  <g id="svg_23"/>
  <g id="svg_24"/>
  <g id="svg_25"/>
  <g id="svg_26"/>
  <g id="svg_27"/>
 </g>
</svg>