<?xml version="1.0" encoding="iso-8859-1"?>
<!-- Generator: Adobe Illustrator 19.0.0, SVG Export Plug-In . SVG Version: 6.00 Build 0)  -->
<svg version="1.1" id="Capa_1" xmlns="http://www.w3.org/2000/svg" xmlns:xlink="http://www.w3.org/1999/xlink" x="0px" y="0px"
	 viewBox="0 0 512 512" style="enable-background:new 0 0 512 512;" xml:space="preserve">
<g>
	<g>
		<path d="M255.999,282c-19.829,0-35.961,16.132-35.961,35.961v9.691h71.922v-9.691C291.96,298.132,275.828,282,255.999,282z"/>
	</g>
</g>
<g>
	<g>
		<path d="M54.259,103v224.653h135.779v-9.691c0-36.372,29.59-65.962,65.961-65.962c36.371,0,65.961,29.59,65.961,65.961v9.691
			h135.779V103H54.259z"/>
	</g>
</g>
<g>
	<g>
		<rect x="20.51" width="470.98" height="73"/>
	</g>
</g>
<g>
	<g>
		<path d="M20.51,357.653V512h470.979V357.653C440.132,357.653,67.142,357.653,20.51,357.653z M130.458,418.252v49.977h-18.047
			v-49.977H93.438v-15.733h55.899v15.733H130.458z M173.955,468.229h-18.047v-65.71h18.047V468.229z M231.474,464.804
			c-29.418,14.883-58.375-14.068-47.57-41.833c10.263-26.405,47.495-26.836,58.26-6.478l-13.79,9.81
			c-5.011-13.023-28.412-11.383-28.412,9.07c0,19.905,23.195,22.508,28.135,9.348l14.715,8.792
			C240.74,458.56,236.291,462.365,231.474,464.804z M288.53,468.229l-16.289-24.155c-6.298,6.53-4.998,1.369-4.998,24.155h-18.047
			v-65.71h18.047v24.988l19.991-24.988h20.36l-23.878,29.431l25.544,36.279H288.53z M359.885,468.229h-46.83v-65.71h45.997v15.733
			h-27.95v9.255h23.878v14.623h-23.878v10.366h28.783V468.229z M419.484,418.252h-18.88v49.977h-18.047v-49.977h-18.973v-15.733
			h55.9V418.252z"/>
	</g>
</g>
<g>
</g>
<g>
</g>
<g>
</g>
<g>
</g>
<g>
</g>
<g>
</g>
<g>
</g>
<g>
</g>
<g>
</g>
<g>
</g>
<g>
</g>
<g>
</g>
<g>
</g>
<g>
</g>
<g>
</g>
</svg>
