<svg width="576" height="512" xmlns="http://www.w3.org/2000/svg" class="svg-inline--fa fa-ticket-alt fa-w-18">

 <g>
  <title>background</title>
  <rect fill="none" id="canvas_background" height="602" width="802" y="-1" x="-1"/>
 </g>
 <g>
  <title>Layer 1</title>
  <path id="svg_1" d="m128,159l320,0l0,192l-320,0l0,-192zm400,96c0,26.51 21.49,48 48,48l0,96c0,26.51 -21.49,48 -48,48l-480,0c-26.51,0 -48,-21.49 -48,-48l0,-96c26.51,0 48,-21.49 48,-48s-21.49,-48 -48,-48l0,-96c0,-26.51 21.49,-48 48,-48l480,0c26.51,0 48,21.49 48,48l0,96c-26.51,0 -48,21.49 -48,48zm-48,-104c0,-13.255 -10.745,-24 -24,-24l-336,0c-13.255,0 -24,10.745 -24,24l0,208c0,13.255 10.745,24 24,24l336,0c13.255,0 24,-10.745 24,-24l0,-208z" fill="#999999"/>
 </g>
</svg>