<svg width="512" height="512" xmlns="http://www.w3.org/2000/svg" class="svg-inline--fa fa-info-circle fa-w-16">

 <g>
  <title>background</title>
  <rect fill="none" id="canvas_background" height="602" width="802" y="-1" x="-1"/>
 </g>
 <g>
  <title>Layer 1</title>
  <path id="svg_1" d="m256,8c-136.957,0 -248,111.083 -248,248c0,136.997 111.043,248 248,248s248,-111.003 248,-248c0,-136.917 -111.043,-248 -248,-248zm0,110c23.196,0 42,18.804 42,42s-18.804,42 -42,42s-42,-18.804 -42,-42s18.804,-42 42,-42zm56,254c0,6.627 -5.373,12 -12,12l-88,0c-6.627,0 -12,-5.373 -12,-12l0,-24c0,-6.627 5.373,-12 12,-12l12,0l0,-64l-12,0c-6.627,0 -12,-5.373 -12,-12l0,-24c0,-6.627 5.373,-12 12,-12l64,0c6.627,0 12,5.373 12,12l0,100l12,0c6.627,0 12,5.373 12,12l0,24z" fill="#999999"/>
 </g>
</svg>